<svg xmlns="http://www.w3.org/2000/svg" viewBox="0 0 266.77 32.83"><defs><style>.cls-1{fill:#fff;}</style></defs><title>Asset 2</title><g id="Layer_2" data-name="Layer 2"><g id="Layer_1-2" data-name="Layer 1"><path class="cls-1" d="M259.05,32.76a8.37,8.37,0,0,1-8.21-8.3l.05-1.08h5c0,3.38,1.62,4.58,3.1,4.58,1.31,0,2.64-1.29,2.64-3.76,0-2.06-2.62-4.47-4.93-6.59-4.23-3.88-5.69-5.43-5.69-9.48C251,3.5,254.33,0,258.71,0a7.18,7.18,0,0,1,5.77,2.42A8.07,8.07,0,0,1,266.65,8l0,1.1h-4.89l-.05-1.49a2.56,2.56,0,0,0-2.85-2.71,2.9,2.9,0,0,0-2.72,2.83c0,1.72,1,2.94,3.39,5.19,4.66,4.4,7.29,7.12,7.29,11.78A7.72,7.72,0,0,1,259.05,32.76Zm-10.41-.42-5-14.92.09-.05a8.79,8.79,0,0,0,4.13-7.76c0-5.16-3.62-8.91-8.61-8.91h-8V32.33h5V18.52h2.77l4.68,13.82ZM236.16,5.58h3c2.38,0,3.8,1.51,3.8,4s-1.4,4.1-3.73,4.1h-3ZM24.73,32.33V.7H19.67V32.33Zm22.23,0L39.47.7h-5L27,32.33h5.18l1.43-6.88h6.76l1.43,6.88ZM36.84,9.64h.26l2.26,10.9H34.58ZM66.94,32.33V.7H61.87V14L54.64.7H49.52V32.33h5.07V10.55l7.28,13.39v8.4Zm13.46,0V5.59h5.75V.7H69.58v4.9h5.75V32.33Zm53.77,0V.7H129.1V13.88h-6.27V.7h-5.07V32.33h5.07V18.77h6.27V32.33Zm56.26,0v-4.9h-9.28V.7H176V32.33Zm12.23,0a6.6,6.6,0,0,0,6.59-6.59V7.29A6.6,6.6,0,0,0,202.66.7H193.4V32.33ZM198.5,5.51h3a2.56,2.56,0,0,1,2.55,2.55V24.84a2.56,2.56,0,0,1-2.55,2.55h-3Zm29.23,26.82v-4.9h-9.95V18.69h7.39v-4.9h-7.39V5.59h9.95V.7h-15V32.33Zm-74.58-7.57V8.27a7.84,7.84,0,0,0-15.69,0V24.76a7.84,7.84,0,0,0,15.69,0Zm-10.58-9.62h0v-7a2.76,2.76,0,0,1,2.76-2.75h0A2.76,2.76,0,0,1,148,8.12v9.76h0v7a2.76,2.76,0,0,1-5.51,0Zm29.7,9.62V.7h-5.07V24.91a2.76,2.76,0,0,1-5.51,0V.7h-5.11V24.76a7.84,7.84,0,0,0,15.69,0ZM8,32.83c3,0,4.33-1.15,5.3-2.39l.53,1.89H16V15.14H8.4v5H11v4.83a2.94,2.94,0,0,1-5.89,0v-17a2.94,2.94,0,0,1,5.89,0v.63h5.07V8.19A8,8,0,0,0,0,8.19V24.8a8,8,0,0,0,8,8Zm106.78-8.14c0-4.66-2.64-7.37-7.29-11.78-2.39-2.26-3.39-3.48-3.39-5.19a2.9,2.9,0,0,1,2.72-2.83,3,3,0,0,1,2.09.72,2.66,2.66,0,0,1,.76,2l.06,1.49h4.89l0-1.1a8.06,8.06,0,0,0-2.17-5.57A7.18,7.18,0,0,0,106.76,0c-4.39,0-7.69,3.5-7.69,8.13,0,4,1.46,5.6,5.69,9.48,2.31,2.12,4.93,4.53,4.93,6.59,0,2.47-1.33,3.76-2.64,3.76-1.48,0-3.06-1.21-3.1-4.58h-5l-.05,1.08a8.37,8.37,0,0,0,8.21,8.3A7.72,7.72,0,0,0,114.81,24.69Z"/></g></g></svg>