<svg xmlns="http://www.w3.org/2000/svg" viewBox="0 0 34.38 40.86"><defs><style>.cls-1{fill:#f2f3f4;}.cls-2{fill:#ef3b04;}</style></defs><title>Asset 3</title><g id="Layer_2" data-name="Layer 2"><g id="Layer_1-2" data-name="Layer 1"><path class="cls-1" d="M8,32.68a8,8,0,0,1-8-8V8A8,8,0,0,1,16.06,8v.36H11V7.76a2.94,2.94,0,1,0-5.89,0v17a2.94,2.94,0,0,0,5.89,0V20H8.4V15H16v17.2H13.86l-.53-1.89c-1,1.24-2.28,2.39-5.3,2.39Z"/><path class="cls-1" d="M26.63,40.86a8.37,8.37,0,0,1-8.21-8.3l.05-1.08h5c0,3.38,1.62,4.58,3.1,4.58,1.31,0,2.64-1.29,2.64-3.76,0-2.06-2.62-4.47-4.93-6.59-4.23-3.88-5.69-5.43-5.69-9.48,0-4.64,3.31-8.13,7.69-8.13a7.18,7.18,0,0,1,5.77,2.42,8.06,8.06,0,0,1,2.17,5.57l0,1.1H29.29l-.06-1.49a2.66,2.66,0,0,0-.76-2A3,3,0,0,0,26.39,13a2.9,2.9,0,0,0-2.72,2.83c0,1.72,1,2.94,3.39,5.19,4.66,4.4,7.29,7.12,7.29,11.78A7.72,7.72,0,0,1,26.63,40.86Z"/><rect class="cls-2" y="35.7" width="15.98" height="4.66"/><rect class="cls-2" x="18.39" y="0.24" width="15.98" height="4.66"/></g></g></svg>