<?xml version="1.0" encoding="utf-8"?>
<!-- Generator: Adobe Illustrator 19.1.0, SVG Export Plug-In . SVG Version: 6.00 Build 0)  -->
<svg version="1.1" id="Layer_1" xmlns="http://www.w3.org/2000/svg" xmlns:xlink="http://www.w3.org/1999/xlink" x="0px" y="0px"
	 viewBox="0 0 51.1 53.7" style="enable-background:new 0 0 51.1 53.7;" xml:space="preserve">
<style type="text/css">
	.st0{fill:#FF0000;}
	.st1{fill:#FFFFFF;}
</style>
<g>
	<polygon class="st0" points="51.1,1 37.6,1 28.3,1 28.3,8 37.6,8 51.1,8 	"/>
	<polygon class="st0" points="24.7,45.7 11.2,45.7 2,45.7 2,52.7 11.2,52.7 24.7,52.7 	"/>
	<path class="st1" d="M39.9,53.7c-6.8,0-11.4-4.6-11.4-11.4l0.1-1.3c0,0,6.2,0,7.7,0c-0.1,2.4,0.4,5.6,3.6,5.6
		c2.8,0,3.7-1.7,3.7-4.5c0-2.6-3.8-5.3-6.8-7.7c-4.6-3.7-8.9-6.8-8.9-12.4l0-0.3c0-6,5.3-10.5,11.5-10.5c3.4,0,6.2,1,8.2,2.9
		c2,1.9,3.5,4.7,3.5,8l-0.1,1h-7.7l-0.1-1.9c0-2-1.8-3-3.8-3c-2.1,0-3.5,1.3-3.5,3l0,0.2c0,2.4,2.8,4.3,5.1,6.2
		c6.7,5.4,10.5,7.3,10.5,15.1C51.5,49.8,46.5,53.7,39.9,53.7z"/>
	<path class="st1" d="M24.7,13.2v-0.8C24.7,5.5,19.2,0,12.4,0S0,5.5,0,12.4V30c0,6.8,5.5,12.4,12.4,12.4c2.7,0,5.2-0.8,7.4-2.4
		l0.9,1.8h4.1V17.3H12.1v7.8h4.8V30c0,2.8-2,4.9-4.5,4.9S7.8,32.8,7.8,30V12.4c0-2.8,2-4.9,4.5-4.9s4.5,2.2,4.5,4.9v0.8H24.7z"/>
</g>
</svg>
