<svg id="Rest_State" data-name="Rest State" xmlns="http://www.w3.org/2000/svg" viewBox="0 0 360 360"><defs><style>.cls-1{fill:#333;}.cls-2{fill:#c69c6d;}.cls-3{fill:#a67c52;}</style></defs><title>09-BlackHjerteKoffee</title><rect class="cls-1" width="360" height="360"/><path class="cls-2" d="M4563.21,1305.19a120,120,0,1,0,120,120A120.14,120.14,0,0,0,4563.21,1305.19Zm0,236.69a116.68,116.68,0,1,1,116.68-116.69A116.68,116.68,0,0,1,4563.21,1541.87Z" transform="translate(-4384 -1246)"/><path class="cls-2" d="M4610.22,1346c-0.66-.39-1.31-0.79-2-1.17l-1.39,2.44c0.89,0.49,1.78,1,2.66,1.55l0.81,0.5c2.91,1.83,5.71,3.85,8.15,5.74l0,0,3.49-4.59-2.46-1.85-1.79,2.34c-1.51-1.12-3.07-2.18-4.67-3.21l2.53-4.09c1.34,0.87,2.72,1.83,4,2.74l1.73-2.3c-1.54-1.08-2.9-2-4.25-2.87l2.49-4c1.87,1.2,3.73,2.48,5.63,3.88l-1.52,2,2.47,1.88,3-3.89h0l0.25-.34a118,118,0,0,0-13.22-8.9l-1.4,2.45,2,1.15Z" transform="translate(-4384 -1246)"/><path class="cls-2" d="M4647.78,1363.77q1,1.34,1.92,2.72l-10.38,6.81c-0.4-.58-0.81-1.17-1.22-1.74l-2.23,1.66c0.63,0.91,1.39,2,2.15,3.16l0.45,0.69c0.47,0.73.94,1.46,1.37,2.18l2.41-1.41c-0.32-.54-0.68-1.11-1.06-1.71l10.38-6.8q0.83,1.31,1.65,2.7l-2.44,1.41,1.55,2.68,4.5-2.6,0-.05,0.37-.15a110.9,110.9,0,0,0-9-13.7l-0.37.28h0l-4.21,3.12,1.84,2.49Z" transform="translate(-4384 -1246)"/><path class="cls-2" d="M4633.67,1365.81a0.31,0.31,0,0,1,0-.39,34.51,34.51,0,0,0,1.44-4.75,6.14,6.14,0,0,0,5.59-1.78,5.42,5.42,0,0,0,1-6.66c-1-1.7-5.74-6-7.87-7.88l-1.8,2.15c0.25,0.2.85,0.75,1.58,1.43l-8.48,9-1.7-1.51-1.8,2.15c1,0.86,2.81,2.51,4.06,3.71l1.72-1.84,8.64-9.19c0.81,0.78,1.46,1.42,1.6,1.56,0.77,0.83,2.16,2.81.58,4.67a3.71,3.71,0,0,1-2.62,1.34,17.13,17.13,0,0,0,.14-2.43c-0.73.06-1.46,0.1-2.2,0.13a10.49,10.49,0,0,1-.22,1.9,5.36,5.36,0,0,1-1.37-.84l-1.26,2.17a8.79,8.79,0,0,0,1.94,1.16c-0.49,1.45-1.14,3-1.89,4.69-0.44,1-.48,1.56-0.2,1.84s2.24,2.66,2.24,2.66l2.22-1.71Z" transform="translate(-4384 -1246)"/><path class="cls-2" d="M4596,1342.39c4.36,2.54,8.72,1.11,10.86-4.27,0.07-.17,1.77-4,2.92-6.5l1.9,1,1.29-2.49c-2.72-1.43-4.7-2.36-7.18-3.45l-1.15,2.57c0.71,0.3,1.39.6,2.06,0.91l-3.59,7.63c-1.58,3.36-4,3.12-5.94,2Z" transform="translate(-4384 -1246)"/><path class="cls-2" d="M4583.18,1335.21l-1.53-.34,0.92-4.72c1.74,0.34,5,1.13,7,1.72l-1.38,4.59-1.76-.48-0.67,2.74c2.24,0.56,5,1.44,7.13,2.16l0.89-2.64c-0.89-.32-1.84-0.63-2.37-0.8l3.57-11.85,2.07,0.68,0.94-2.65c-2.85-1-5.2-1.68-8-2.41l-0.67,2.73c0.67,0.17,2.43.66,2.43,0.66l-1.35,4.52c-3.53-1-5.47-1.37-7.34-1.77l0.84-4.67,2.15,0.46,0.65-2.73c-2.94-.7-5.53-1.1-7.72-1.44l-0.59,2.74,2.14,0.34-2.25,12.19s-1.32-.23-2.87-0.42l-0.55,2.74c2.42,0.32,5.62.9,7.64,1.36Z" transform="translate(-4384 -1246)"/><polygon class="cls-2" points="138.42 82.74 142.61 94.41 140.49 95.17 141.44 97.83 143.56 97.07 143.56 97.07 146.74 95.92 146.74 95.92 148.86 95.16 147.91 92.51 145.79 93.27 141.6 81.6 143.72 80.84 142.77 78.19 135.34 80.85 136.29 83.5 138.42 82.74"/><path class="cls-2" d="M4531.52,1325.48a7.7,7.7,0,0,1,.54,5.11,14.76,14.76,0,0,0-1.81-.69l-1.28,2.41a4.6,4.6,0,0,1,1.92.82,16,16,0,0,1-1.31,1.7l2.13,1.63a11.26,11.26,0,0,0,1.37-1.47c2.07,2,4,4.42,5.25,4.29a11.68,11.68,0,0,0,3.58-1.36l-1-2.65a8.67,8.67,0,0,1-1.71.66c-1.17-.07-2.21-2-4.54-3.75a10.07,10.07,0,0,0,0-7.84l1.93-.69-1-2.65-7.16,2.57,1,2.65Z" transform="translate(-4384 -1246)"/><path class="cls-2" d="M4516.16,1349.78c3.23-2,5.07-5.33,4.42-8.83l-2.82-.07a6.22,6.22,0,0,1-3.25,6.06c-2.48,1.55-5.71.82-7.88-2.64a5.37,5.37,0,0,1,1.49-7.57,4.72,4.72,0,0,1,6.15.67l0.12-.09h0l0.08-.06,2.1-1.56,0,0h0a21,21,0,0,1-3.48-5.58l-2.46,1.51c0.18,0.37.44,0.86,0.76,1.41a7.53,7.53,0,0,0-5.14,1.1,8.69,8.69,0,0,0-2.7,12.16C4507.12,1352,4512.75,1351.9,4516.16,1349.78Z" transform="translate(-4384 -1246)"/><path class="cls-2" d="M4504.8,1353.27l-1.59,1.59-12.05-5.48h0l-2.74-1.24a20.55,20.55,0,0,1-4.55,4.53l1.73,2.11c0.62-.45,1.21-0.94,1.77-1.44l5.42,11.94-1.45,1.45,2,2,5.38-5.38-2-2-2.73,2.73,1.16-1.19-1.12-2.46,4.32-4.31,2.45,1.12,1.21-1.17-2.6,2.6,2,2,5.38-5.38Zm-15.06-2.26,0.66,1.44h0Zm3.17,6.94-2.51-5.49,5.49,2.51Z" transform="translate(-4384 -1246)"/><polygon class="cls-2" points="87.53 129.29 98.33 135.4 97.23 137.34 99.68 138.73 100.78 136.79 100.78 136.79 101.87 134.86 106.9 125.97 104.44 124.58 104.44 124.59 101.99 123.19 100.46 125.89 102.92 127.28 99.99 132.46 89.2 126.35 90.31 124.39 87.86 123 86.75 124.97 86.75 124.97 85.09 127.88 85.09 127.88 83.99 129.85 86.44 131.23 87.53 129.29"/><path class="cls-2" d="M4462.37,1397l0.69-1.89,11.65,4.24c-0.27.7-.52,1.34-0.72,1.88l2.65,1c0.17-.47,3.12-8.32,3.46-9.24,1.24-3.41,0-6.8-4.25-7.54a6.76,6.76,0,0,0-4.2.59,5,5,0,0,0-1.95-1.38l-0.44-.17c-3.06-1.11-5.55.68-6.58,3.3-0.92,2.33-1.61,4.43-1.86,5.25l-1.1,3Zm6.09-9.5a2.87,2.87,0,0,1,.7.35,13.28,13.28,0,0,0-1.68,2.15,10.35,10.35,0,0,0,1.68,1.37,9.15,9.15,0,0,1,1.67-1.6,5.26,5.26,0,0,1,.6,2,11.17,11.17,0,0,0,2.17-.73,5.28,5.28,0,0,0-.45-2.67,3.44,3.44,0,0,1,1.63-.24c2.19,0.3,3.36,1.7,2.35,4.74-0.34,1-.75,2.16-1.19,3.28l-11.73-4.27v0h0c0.06-.21.45-1.44,1-2.9A2.39,2.39,0,0,1,4468.46,1387.51Z" transform="translate(-4384 -1246)"/><path class="cls-2" d="M4657.66,1380.36l-11.29,5.15q-0.48-1-1-2l-2.51,1.21c0.43,0.83.85,1.69,1.25,2.56l0.55,1.2c1.38,3.1,2.56,6.29,3.54,9.18v0h0l0.08,0,5.37-1.85-1-2.91-2.78,1q-1-2.65-2.1-5.26l4.37-2c0.68,1.6,1.37,3.3,1.85,4.53l2.7-1c-0.83-2.08-1.41-3.5-1.94-4.73l4.31-2c0.89,2,1.73,4.14,2.52,6.36l-2.37.82,1,2.93,2.77-1,2.23-.74a117.2,117.2,0,0,0-6-14.65l-2.55,1.13Q4657.18,1379.34,4657.66,1380.36Z" transform="translate(-4384 -1246)"/><path class="cls-2" d="M4526,1509.38l1.1-2a0.33,0.33,0,0,0-.16-0.5l-5.94-3.34a0.32,0.32,0,0,0-.49.13l-1.1,2a0.32,0.32,0,0,0,.14.48L4521,1507c-2,3.61-4,4.31-6.79,2.75l-1.45-.82,2.81-5,1.09,0.61a0.32,0.32,0,0,0,.49-0.14l1.1-2a0.32,0.32,0,0,0-.13-0.49l-5.66-3.18a0.31,0.31,0,0,0-.49.14l-1.1,2a0.33,0.33,0,0,0,.14.49l1.53,0.87-6.08,10.81-1.54-.86a0.31,0.31,0,0,0-.48.14l-1.1,2a0.32,0.32,0,0,0,.14.49l6.59,3.7a0.33,0.33,0,0,0,.48-0.14l1.1-2a0.33,0.33,0,0,0-.14-0.49l-2-1.14,1.9-3.38,2.78,1.56c0,0.21-1.71,6.89,3.08,9.58l0.74,0.41a0.32,0.32,0,0,0,.49-0.13l1.1-2a0.32,0.32,0,0,0-.14-0.49c-3-1.69-2.05-6.57-2-6.75,2.31-.2,4.57-1.3,6.6-4.91l1.44,0.82A0.34,0.34,0,0,0,4526,1509.38Z" transform="translate(-4384 -1246)"/><path class="cls-2" d="M4537.68,1510.3a8.9,8.9,0,0,0-11.4,6.24c-1.59,5.34,1.12,10.2,6.07,11.67s9.78-.87,11.44-6.46A8.88,8.88,0,0,0,4537.68,1510.3Zm2.51,10.46c-1,3.53-4.14,5.14-6.91,4.32s-4.48-3.87-3.43-7.4c1.1-3.7,4.2-5,6.87-4.25S4541.31,1517,4540.19,1520.76Z" transform="translate(-4384 -1246)"/><path class="cls-2" d="M4563,1514.5l-14-1.19a0.31,0.31,0,0,0-.39.32l-0.19,2.24a0.32,0.32,0,0,0,.33.39l1.76,0.15-1,12.38-1.76-.15a0.31,0.31,0,0,0-.39.32l-0.19,2.24a0.32,0.32,0,0,0,.33.39l8.3,0.7a0.33,0.33,0,0,0,.39-0.33l0.19-2.24a0.32,0.32,0,0,0-.33-0.39l-3.08-.26,0.4-4.73,4.81,0.41a0.32,0.32,0,0,0,.39-0.33l0.2-2.24a0.33,0.33,0,0,0-.33-0.39l-4.82-.41,0.4-4.68,5.88,0.5-0.21,2.47a0.29,0.29,0,0,0,.3.36l2.58,0.22a0.3,0.3,0,0,0,.38-0.3l0.43-5.07A0.33,0.33,0,0,0,4563,1514.5Z" transform="translate(-4384 -1246)"/><path class="cls-2" d="M4580.47,1512.83l-14,1.55a0.31,0.31,0,0,0-.32.4l0.25,2.24a0.32,0.32,0,0,0,.4.32l1.75-.2,1.38,12.34-1.75.2a0.31,0.31,0,0,0-.32.4l0.25,2.23a0.32,0.32,0,0,0,.4.31l8.28-.92a0.33,0.33,0,0,0,.32-0.4l-0.25-2.23a0.33,0.33,0,0,0-.4-0.32l-3.07.35-0.52-4.72,4.8-.53a0.33,0.33,0,0,0,.32-0.4l-0.25-2.24a0.33,0.33,0,0,0-.4-0.32l-4.8.54-0.52-4.67,5.87-.65,0.28,2.46a0.29,0.29,0,0,0,.37.29l2.56-.28a0.31,0.31,0,0,0,.32-0.38l-0.57-5.05A0.33,0.33,0,0,0,4580.47,1512.83Z" transform="translate(-4384 -1246)"/><path class="cls-2" d="M4601.07,1520.14a0.31,0.31,0,0,0-.42-0.24l-2.46.78a0.33,0.33,0,0,0-.23.45l0.75,2.34-5.77,1.83-1.44-4.53,4.77-1.52a0.31,0.31,0,0,0,.23-0.45l-0.68-2.14a0.32,0.32,0,0,0-.45-0.23l-4.77,1.52-1.42-4.48,5.79-1.84,0.75,2.36a0.31,0.31,0,0,0,.44.21l2.44-.78a0.3,0.3,0,0,0,.24-0.42l-1.54-4.85a0.32,0.32,0,0,0-.45-0.23l-13.56,4.32a0.31,0.31,0,0,0-.23.45l0.68,2.14a0.32,0.32,0,0,0,.45.23l1.68-.53,3.76,11.83-1.68.54a0.32,0.32,0,0,0-.23.45l0.68,2.14a0.32,0.32,0,0,0,.45.23l13.57-4.31a0.32,0.32,0,0,0,.21-0.44Z" transform="translate(-4384 -1246)"/><path class="cls-2" d="M4619.26,1510.63a0.3,0.3,0,0,0-.46-0.15l-2.26,1.26a0.32,0.32,0,0,0-.14.49l1.2,2.14-5.29,3-2.33-4.16,4.38-2.45a0.32,0.32,0,0,0,.14-0.49l-1.1-2a0.31,0.31,0,0,0-.49-0.14l-4.38,2.45-2.3-4.11,5.31-3,1.21,2.17a0.31,0.31,0,0,0,.48.11l2.23-1.24a0.31,0.31,0,0,0,.15-0.47l-2.49-4.45a0.33,0.33,0,0,0-.49-0.14l-12.44,7a0.31,0.31,0,0,0-.14.49l1.1,2a0.32,0.32,0,0,0,.49.14l1.54-.86,6.08,10.85-1.54.86a0.32,0.32,0,0,0-.14.49l1.1,2a0.32,0.32,0,0,0,.49.14l12.44-7a0.32,0.32,0,0,0,.11-0.48Z" transform="translate(-4384 -1246)"/><path class="cls-3" d="M4597.26,1380.31c-12.55-2.08-23.92,1.69-34,11.19-10.16-9.51-21.57-13.28-34.08-11.19-13.63,2.3-23.09,10.94-26,23.65-3.56,16.06,4.48,34.16,20.1,45,3.6,2.52,7.42,4.9,11.11,7.2,6.29,4,12.84,8.08,18.53,12.89,2.78,2.34,5.77,5.25,7.29,8.73,0,0,1.47,3.43,3,3.43s2.95-3.43,2.95-3.43c1.52-3.47,4.51-6.38,7.3-8.73a157.18,157.18,0,0,1,18.53-12.89c3.69-2.3,7.51-4.68,11.11-7.2,15.58-10.81,23.65-28.91,20.1-45C4620.35,1391.24,4610.89,1382.61,4597.26,1380.31Zm2.39,63.58c-3.51,2.43-7.29,4.82-10.9,7.08-6.51,4.08-13.23,8.25-19.23,13.41a38.79,38.79,0,0,0-6.29,6.47,43,43,0,0,0-6.34-6.47c-6-5.16-12.72-9.33-19.27-13.41-3.56-2.26-7.33-4.65-10.9-7.08-15.63-10.9-20.1-27.22-17.58-38.58,2.3-10.2,10-17.1,21-19a36.8,36.8,0,0,1,5.64-.48c8.42,0,16.1,3.34,23.22,10a98.84,98.84,0,0,0-13.41,20.62l5.47,2.73a93.08,93.08,0,0,1,12.16-18.92,96.86,96.86,0,0,1,11.93,18.58s4-3.61,4.95-3.73a96.08,96.08,0,0,0-12.72-19.27c8.68-8.2,18.19-11.33,28.86-9.55,11,1.86,18.67,8.77,21,19C4619.78,1416.68,4615.31,1433,4599.64,1443.89Z" transform="translate(-4384 -1246)"/><path class="cls-3" d="M4653.4,1451.13l0.26-.12a57.37,57.37,0,0,0,12.35-7.69c-0.69-.3-2.94-3.22-2.94-3.22a55.54,55.54,0,0,1-12,7.59,55.42,55.42,0,0,1-5.43-13.37l-4.45.28a59.81,59.81,0,0,0,6,14.57,60,60,0,0,0-13.35,8.38l3.46,2.81a55.49,55.49,0,0,1,12.18-7.75,55.52,55.52,0,0,1,5.35,13.12s3.53-1.08,4.26-.92a57.49,57.49,0,0,0-5.61-13.43A2.34,2.34,0,0,1,4653.4,1451.13Z" transform="translate(-4384 -1246)"/><path class="cls-3" d="M4486.25,1434.6l-4.45-.28a55.42,55.42,0,0,1-5.43,13.37,55.54,55.54,0,0,1-12-7.59s-2.25,2.93-2.94,3.22a57.36,57.36,0,0,0,12.35,7.69l0.26,0.12a2.35,2.35,0,0,1-.15.25,57.49,57.49,0,0,0-5.61,13.43c0.73-.16,4.26.92,4.26,0.92a55.52,55.52,0,0,1,5.35-13.12,55.49,55.49,0,0,1,12.18,7.75l3.46-2.81a60,60,0,0,0-13.35-8.38A59.8,59.8,0,0,0,4486.25,1434.6Z" transform="translate(-4384 -1246)"/></svg>