<svg xmlns="http://www.w3.org/2000/svg" xmlns:xlink="http://www.w3.org/1999/xlink" viewBox="0 0 1441 913.53"><defs><style>.cls-1{isolation:isolate;}.cls-2{fill:#d8d8d8;}.cls-3{fill:#393b42;}.cls-4{fill:#b6b6b6;}.cls-5{fill:#fff;}.cls-6{fill:#e64036;}.cls-7{fill:#4d4e4e;}.cls-8{mix-blend-mode:multiply;fill:url(#linear-gradient);}</style><linearGradient id="linear-gradient" x1="720.5" y1="913.53" x2="720.5" y2="359.87" gradientUnits="userSpaceOnUse"><stop offset="0" stop-color="gray"/><stop offset="0.25" stop-color="gray" stop-opacity="0.73"/><stop offset="0.76" stop-color="gray" stop-opacity="0.21"/><stop offset="1" stop-color="gray" stop-opacity="0"/></linearGradient></defs><title>Iceberg Graphic</title><g class="cls-1"><g id="Rest_State" data-name="Rest State"><rect class="cls-2" x="1" width="1440" height="360"/><rect class="cls-3" y="359.87" width="1440.32" height="553.67"/><polygon class="cls-4" points="763.01 913.53 426.49 359.87 150.56 359.87 0 630.89 0 913.53 763.01 913.53"/><path class="cls-5" d="M3080.83,4504.73h-227.6L2921,4379.82s3.5-5.31,5.84-5.5c18.58-1.56,50.79,13.4,63.48,33.53,8.06,12.78,32.44-1.38,41.72,1Z" transform="translate(-2679 -4144.87)"/><polygon class="cls-6" points="323.72 203.35 280.56 203.35 280.56 178.46 323.72 178.46 319.59 190.81 323.72 203.35"/><polygon class="cls-5" points="302.14 182.74 304.17 188.98 310.73 188.98 305.42 192.84 307.45 199.07 302.14 195.22 296.84 199.07 298.86 192.84 293.56 188.98 300.12 188.98 302.14 182.74"/><polygon class="cls-7" points="280.56 237.53 278.48 236.37 278.48 175.78 280.56 175.78 280.56 237.53"/><rect class="cls-8" y="359.87" width="1441" height="553.67"/></g></g></svg>